# xmcd CD database file
#
# Track frame offsets:
#	150
#	7922
#	17482
#	33860
#	47507
#	59775
#	72170
#	87387
#	96890
#	112587
#	130947
#	144112
#	154587
#	167495
#
# Disc length: 2325 seconds
#
# Revision: 0
# Processed by: cddbd v1.4PL0 Copyright (c) Steve Scherf et al.
# Submitted via: CDex 1.50
#
DISCID=a009130e
DTITLE=Tony Bennett and Count Basie - Bennett Sings Basie Swings
DYEAR=1996
DGENRE=Jazz
TTITLE0=I guess I'll have to change my plans
TTITLE1=Jeepers Creepers
TTITLE2=Growing Pains
TTITLE3=I've grown accustomed to her face
TTITLE4=April in Paris
TTITLE5=Are you having any fun?
TTITLE6=Broadway
TTITLE7=Chicago
TTITLE8=Poor little rich girl
TTITLE9=Lester leaps in
TTITLE10=Life is a song
TTITLE11=Anything goes
TTITLE12=Out of the window
TTITLE13=With plenty of money and you
EXTD=YEAR: 1996
EXTT0=
EXTT1=
EXTT2=
EXTT3=
EXTT4=
EXTT5=
EXTT6=
EXTT7=
EXTT8=
EXTT9=
EXTT10=
EXTT11=
EXTT12=
EXTT13=
PLAYORDER=
